<svg width="40" height="40" viewBox="0 0 40 40" fill="none" xmlns="http://www.w3.org/2000/svg">
<mask id="mask0_78_894" style="mask-type:alpha" maskUnits="userSpaceOnUse" x="0" y="0" width="40" height="40">
<rect width="40" height="40" fill="#D9D9D9"/>
</mask>
<g mask="url(#mask0_78_894)">
<path d="M8.84629 34.1667C8.00435 34.1667 7.29171 33.875 6.70837 33.2917C6.12504 32.7084 5.83337 31.9957 5.83337 31.1538V25H8.33337V31.1538C8.33337 31.2821 8.38685 31.3996 8.49379 31.5063C8.60046 31.6132 8.71796 31.6667 8.84629 31.6667H15V34.1667H8.84629ZM25 34.1667V31.6667H31.1538C31.2821 31.6667 31.3996 31.6132 31.5063 31.5063C31.6132 31.3996 31.6667 31.2821 31.6667 31.1538V25H34.1667V31.1538C34.1667 31.9957 33.875 32.7084 33.2917 33.2917C32.7084 33.875 31.9957 34.1667 31.1538 34.1667H25ZM5.83337 15V8.84629C5.83337 8.00435 6.12504 7.29171 6.70837 6.70837C7.29171 6.12504 8.00435 5.83337 8.84629 5.83337H15V8.33337H8.84629C8.71796 8.33337 8.60046 8.38685 8.49379 8.49379C8.38685 8.60046 8.33337 8.71796 8.33337 8.84629V15H5.83337ZM31.6667 15V8.84629C31.6667 8.71796 31.6132 8.60046 31.5063 8.49379C31.3996 8.38685 31.2821 8.33337 31.1538 8.33337H25V5.83337H31.1538C31.9957 5.83337 32.7084 6.12504 33.2917 6.70837C33.875 7.29171 34.1667 8.00435 34.1667 8.84629V15H31.6667ZM20 27.5C17.9189 27.5 16.1487 26.7703 14.6892 25.3109C13.2298 23.8514 12.5 22.0812 12.5 20C12.5 17.9189 13.2298 16.1487 14.6892 14.6892C16.1487 13.2298 17.9189 12.5 20 12.5C22.0812 12.5 23.8514 13.2298 25.3109 14.6892C26.7703 16.1487 27.5 17.9189 27.5 20C27.5 22.0812 26.7703 23.8514 25.3109 25.3109C23.8514 26.7703 22.0812 27.5 20 27.5ZM20 25C21.3889 25 22.5695 24.5139 23.5417 23.5417C24.5139 22.5695 25 21.3889 25 20C25 18.6112 24.5139 17.4306 23.5417 16.4584C22.5695 15.4862 21.3889 15 20 15C18.6112 15 17.4306 15.4862 16.4584 16.4584C15.4862 17.4306 15 18.6112 15 20C15 21.3889 15.4862 22.5695 16.4584 23.5417C17.4306 24.5139 18.6112 25 20 25Z" fill="#1C1B1F"/>
</g>
</svg>
