<svg xmlns="http://www.w3.org/2000/svg" width="15" height="15" viewBox="0 0 15 15" fill="none">
  <g clip-path="url(#clip0_8_1448)">
    <path d="M7.5 1.05823C3.87563 1.05823 0.9375 3.68848 0.9375 6.93298C0.9375 8.22823 1.40962 9.4226 2.20425 10.3931C2.49525 10.7486 2.62838 11.2072 2.54063 11.658L2.1825 13.4944C2.1225 13.8026 2.445 14.0437 2.72362 13.8986L4.9035 12.7639C5.21138 12.6037 5.56575 12.5516 5.90438 12.6285C6.41512 12.7444 6.94912 12.8077 7.5 12.8077C11.1244 12.8077 14.0625 10.1775 14.0625 6.93298C14.0625 3.68848 11.1244 1.05823 7.5 1.05823Z" fill="#E2E5E8"/>
    <path d="M4.78272 6.38623C5.18847 6.38623 5.51697 6.71511 5.51697 7.12048C5.51697 7.31511 5.43972 7.50185 5.30172 7.63985C5.1641 7.77748 4.97735 7.85511 4.78235 7.85511C4.3766 7.85511 4.0481 7.52623 4.0481 7.12086C4.0481 6.71548 4.37697 6.38661 4.78235 6.38661L4.78272 6.38623Z" fill="#333D4B"/>
    <path d="M10.2172 7.85473C10.6227 7.85473 10.9514 7.526 10.9514 7.12048C10.9514 6.71497 10.6227 6.38623 10.2172 6.38623C9.81165 6.38623 9.48291 6.71497 9.48291 7.12048C9.48291 7.526 9.81165 7.85473 10.2172 7.85473Z" fill="#333D4B"/>
    <path d="M7.5 7.85473C7.90551 7.85473 8.23425 7.526 8.23425 7.12048C8.23425 6.71497 7.90551 6.38623 7.5 6.38623C7.09448 6.38623 6.76575 6.71497 6.76575 7.12048C6.76575 7.526 7.09448 7.85473 7.5 7.85473Z" fill="#333D4B"/>
  </g>
  <defs>
    <clipPath id="clip0_8_1448">
      <rect width="15" height="15" fill="white"/>
    </clipPath>
  </defs>
</svg>