<svg xmlns="http://www.w3.org/2000/svg" width="52" height="52" viewBox="0 0 52 52" fill="none">
  <g clip-path="url(#clip0_6_900)">
    <rect width="52" height="52" rx="26" fill="#E3E6E8"/>
    <path d="M25.9999 38.546C32.4233 38.546 37.6306 33.142 37.6306 26.4759C37.6306 19.8098 32.4233 14.4059 25.9999 14.4059C19.5765 14.4059 14.3693 19.8098 14.3693 26.4759C14.3693 33.142 19.5765 38.546 25.9999 38.546Z" fill="#FFC84D"/>
    <path d="M16.5709 31.7071C18.8553 31.7071 20.7071 29.9703 20.7071 27.8279C20.7071 25.6855 18.8553 23.9487 16.5709 23.9487C14.2865 23.9487 12.4347 25.6855 12.4347 27.8279C12.4347 29.9703 14.2865 31.7071 16.5709 31.7071Z" fill="#FFC84D"/>
    <path d="M35.4289 31.7071C37.7133 31.7071 39.5651 29.9703 39.5651 27.8279C39.5651 25.6855 37.7133 23.9487 35.4289 23.9487C33.1446 23.9487 31.2927 25.6855 31.2927 27.8279C31.2927 29.9703 33.1446 31.7071 35.4289 31.7071Z" fill="#FFC84D"/>
    <path d="M23.0972 28.6883C23.7045 28.6883 24.1969 28.0974 24.1969 27.3686C24.1969 26.6397 23.7045 26.0488 23.0972 26.0488C22.4899 26.0488 21.9976 26.6397 21.9976 27.3686C21.9976 28.0974 22.4899 28.6883 23.0972 28.6883Z" fill="#25252C"/>
    <path d="M28.9025 28.6883C29.5098 28.6883 30.0022 28.0974 30.0022 27.3686C30.0022 26.6397 29.5098 26.0488 28.9025 26.0488C28.2952 26.0488 27.8029 26.6397 27.8029 27.3686C27.8029 28.0974 28.2952 28.6883 28.9025 28.6883Z" fill="#25252C"/>
    <path d="M27.3673 31.2501C27.6144 31.2501 27.7898 31.4871 27.7244 31.7257C27.5159 32.4829 26.8225 33.0385 25.9999 33.0385C25.1773 33.0385 24.4831 32.4821 24.2754 31.7257C24.21 31.4871 24.3854 31.2501 24.6324 31.2501H27.3673Z" fill="#5C2F17"/>
    <path d="M25.6337 17.7202C25.5929 18.2581 26.1246 18.649 26.6271 18.4536C27.7976 17.998 29.3374 17.1146 29.3243 15.621C29.3035 13.2139 26.327 13.3893 25.6213 13.5225C24.6317 13.7094 23.4813 14.3859 22.9634 14.716C22.8611 14.7814 22.8849 14.9361 23.0026 14.9653C23.7922 15.1592 25.7768 15.8364 25.6329 17.721L25.6337 17.7202Z" fill="#FF9000"/>
  </g>
  <defs>
    <clipPath id="clip0_6_900">
      <rect width="52" height="52" rx="26" fill="white"/>
    </clipPath>
  </defs>
</svg>