<svg width="177" height="177" viewBox="0 0 177 177" fill="none" xmlns="http://www.w3.org/2000/svg">
<g id="&#240;&#159;&#171;&#132;">
<path id="Vector" d="M139.733 117.294C138.644 117.754 137.392 117.833 136.193 117.422C131.511 115.816 127.113 113.643 122.993 110.895C120.957 109.537 120.179 106.926 121.263 104.731L121.351 104.558C121.351 104.558 121.36 104.545 121.364 104.541C121.17 104.483 120.975 104.395 120.776 104.337C123.511 93.6862 118.794 86.3982 111.66 82.0971C111.66 82.0971 108.399 71.4328 96.4738 69.7204L90.6904 69.3796C90.5488 72.2161 88.2478 74.4861 85.3759 74.4861C82.482 74.4861 80.1633 72.1851 80.0526 69.3221C79.2915 69.154 78.5393 68.9593 77.8003 68.7247C71.7248 68.9681 57.2816 71.716 47.113 91.2613C39.4356 106.014 33.8291 119.626 30.4838 128.414C28.2757 134.215 30.559 140.737 35.8956 143.91L75.3975 160.119L77.1631 165.353C77.7959 167.234 79.5615 168.5 81.5439 168.5H129.192C134.162 165.477 138.471 161.397 141.706 156.384C150.897 142.14 147.866 127.568 139.733 117.294ZM60.4278 129.684C57.2595 128.139 56.0205 124.258 57.7108 121.165L63.2509 111.023L68.853 133.794L60.4278 129.684ZM111.134 156.526C110.948 158.605 109.974 160.535 108.408 161.911L106.709 163.406C103.541 166.194 99.1686 167.181 95.1065 166.022L77.9729 159.973C77.3446 159.751 76.9729 159.11 77.0835 158.455L80.0969 141.007C80.2031 140.383 80.7253 139.919 81.3536 139.879L92.8586 139.175C95.5402 139.436 97.5491 141.75 97.4296 144.441C97.3854 145.414 98.0093 146.295 98.943 146.574L106.749 148.919C109.616 149.782 111.488 152.543 111.222 155.526L111.134 156.517V156.526Z" fill="#ABB5C3"/>
<g id="Group">
<path id="Vector_2" d="M95.7614 67.6184H106.359C108.687 67.6184 110.665 65.9237 111.028 63.6271L112.541 54.0337C111.214 54.6576 109.74 55.0382 108.156 55.047C105.7 60.6048 101.275 65.0829 95.7614 67.6184Z" fill="#FF9000"/>
<path id="Vector_3" d="M62.5916 55.0469C60.5384 55.0381 58.6312 54.4496 57.0471 53.4407L59.6844 64.0341C60.2109 66.1404 62.1004 67.6184 64.2731 67.6184H74.986C69.4725 65.0829 65.0475 60.6047 62.5916 55.0469Z" fill="#FF9000"/>
<path id="Vector_4" d="M60.7597 42.5729L65.844 36.8824L77.1897 24.187C77.1897 24.187 90.239 34.661 102.195 38.2054C105.018 39.0418 107.784 39.4975 110.302 39.3338C110.594 39.3161 110.926 39.2143 111.258 39.0727C112.125 38.586 112.851 37.6966 113.519 37.8603C113.528 37.8603 113.537 37.8603 113.545 37.8603C113.798 20.7577 99.0846 6.79679 81.6634 8.66856C68.2645 10.1067 57.5338 20.9966 56.2683 34.4176C56.14 35.785 56.109 37.1302 56.1621 38.4532C56.1621 38.4532 56.2771 38.4355 56.4364 38.4355C57.1135 38.4355 59.0118 38.7807 60.7597 42.5729Z" fill="#FF9000"/>
</g>
<g id="Group_2">
<path id="Vector_5" d="M113.501 37.878C112.837 37.701 112.129 38.586 111.244 39.0727C110.935 39.2055 110.581 39.294 110.315 39.3382C107.793 39.5152 105.005 39.0285 102.173 38.1877C90.2257 34.6477 77.172 24.2047 77.172 24.2047L65.844 36.9045L60.7552 42.5685C59.0295 38.763 57.1267 38.409 56.4187 38.4532C54.162 40.1347 52.6575 42.7455 52.6575 45.7102C52.6575 48.9405 54.4275 51.7725 57.0382 53.454C58.6312 54.4275 60.534 55.047 62.6137 55.047C65.0475 60.6225 69.4725 65.0917 75.0037 67.614C75.8887 68.0565 76.818 68.4105 77.7915 68.7202C78.5437 68.9415 79.296 69.1627 80.0482 69.3397C80.181 72.1717 82.482 74.4727 85.3582 74.4727C88.2345 74.4727 90.5355 72.216 90.6682 69.384C90.6682 69.3397 90.7125 69.3397 90.7125 69.3397C92.4825 68.9415 94.164 68.3662 95.757 67.614C101.288 65.0917 105.713 60.6225 108.147 55.047C109.74 55.047 111.2 54.6487 112.528 54.0292C115.802 52.4805 118.059 49.383 118.059 45.7102C118.059 42.3915 116.245 39.5152 113.501 37.878ZM78.3667 46.9935C76.9065 46.9935 75.7117 45.5332 75.7117 43.8075C75.7117 42.0375 76.9065 40.6215 78.3667 40.6215C79.827 40.6215 81.0217 42.0375 81.0217 43.8075C81.0217 45.5332 79.827 46.9935 78.3667 46.9935ZM85.3582 60.6667C83.4112 60.6667 81.7297 59.295 81.1987 57.4807C81.066 56.9055 81.4642 56.3302 82.0837 56.3302H88.677C89.2522 56.3302 89.6947 56.9055 89.5177 57.4807C89.031 59.295 87.3495 60.6667 85.3582 60.6667ZM92.3497 46.9935C90.8895 46.9935 89.739 45.5332 89.739 43.8075C89.739 42.0375 90.8895 40.6215 92.3497 40.6215C93.8542 40.6215 95.0047 42.0375 95.0047 43.8075C95.0047 45.5332 93.8542 46.9935 92.3497 46.9935Z" fill="#FFC84D"/>
<path id="Vector_6" d="M121.263 104.735C120.179 106.926 120.957 109.541 122.993 110.899C127.113 113.643 131.511 115.82 136.193 117.426C137.392 117.838 138.644 117.758 139.733 117.298C140.746 116.869 141.618 116.116 142.14 115.059L142.224 114.886C144.255 110.775 142.573 105.793 138.458 103.762L132.471 100.801C128.365 98.7704 123.396 100.452 121.356 104.549C121.356 104.558 121.342 104.567 121.342 104.567L121.254 104.74L121.263 104.735Z" fill="#FFC84D"/>
<path id="Vector_7" d="M106.744 148.928L98.9385 146.583C98.0048 146.304 97.3809 145.423 97.4252 144.45C97.5446 141.759 95.5357 139.445 92.8541 139.184L81.3491 139.888C80.7208 139.927 80.1986 140.392 80.0924 141.016L77.079 158.464C76.964 159.119 77.3401 159.76 77.9684 159.981L95.102 166.03C99.1598 167.19 103.532 166.203 106.704 163.415L108.404 161.92C109.97 160.543 110.948 158.614 111.129 156.534L111.218 155.543C111.483 152.556 109.612 149.8 106.744 148.937V148.928Z" fill="#FFC84D"/>
</g>
<g id="Group_3">
<path id="Vector_8" d="M78.3756 46.9758C79.8395 46.9758 81.0262 45.5514 81.0262 43.7942C81.0262 42.0371 79.8395 40.6127 78.3756 40.6127C76.9117 40.6127 75.725 42.0371 75.725 43.7942C75.725 45.5514 76.9117 46.9758 78.3756 46.9758Z" fill="black"/>
<path id="Vector_9" d="M92.3719 46.9758C93.8366 46.9758 95.0225 45.551 95.0225 43.7942C95.0225 42.0375 93.8366 40.6127 92.3719 40.6127C90.9072 40.6127 89.7213 42.0375 89.7213 43.7942C89.7213 45.551 90.9072 46.9758 92.3719 46.9758Z" fill="black"/>
</g>
<path id="Vector_10" d="M88.6726 56.3347H82.0793C81.482 56.3347 81.0616 56.9055 81.2165 57.4808C81.7209 59.3039 83.3891 60.6447 85.376 60.6447C87.3628 60.6447 89.031 59.3039 89.5355 57.4808C89.6948 56.9055 89.27 56.3347 88.6726 56.3347Z" fill="#56311C"/>
</g>
</svg>
